<?xml version="1.0" standalone="no"?>
<!DOCTYPE svg PUBLIC "-//W3C//DTD SVG 20010904//EN"
 "http://www.w3.org/TR/2001/REC-SVG-20010904/DTD/svg10.dtd">
<svg version="1.0" xmlns="http://www.w3.org/2000/svg"
 width="16.000000pt" height="16.000000pt" viewBox="0 0 16.000000 16.000000"
 preserveAspectRatio="xMidYMid meet">

<g transform="translate(0.000000,16.000000) scale(0.100000,-0.100000)"
fill="#000000" stroke="none">
<path d="M38 119 c-28 -16 -23 -67 7 -81 20 -9 28 -9 38 2 10 10 9 12 -3 8
-22 -8 -50 10 -50 32 0 22 28 40 49 32 8 -3 11 0 7 7 -9 14 -25 14 -48 0z"/>
<path d="M130 85 c-4 -29 -9 -39 -20 -37 -12 3 -13 1 -2 -9 19 -20 34 3 30 47
l-4 39 -4 -40z"/>
</g>
</svg>
